<?xml version="1.0" encoding="utf-8"?>
<svg version="1.1" viewBox="0 0 960 600" preserveAspectRatio="xMinYMin meet" class="svg-content">
<path fill-rule="evenodd" clip-rule="evenodd" d="M857.377,174.063c1.053-2.635-1.016-6.772-0.407-10.574
c0.324-2.022,1.775-5.461,3.66-5.287c4.395,0.405,0.921,11.613,2.034,16.675c2.773,0.185,6.321-7.602,10.166-7.728
c2.328-0.076,3.541,1.154,3.661,3.254c0.259,4.565-9.208,7.596-10.574,11.387c2.165,0.293,4.856,0.197,7.728,0.407
c7.301,0.534,15.889-0.184,15.86,6.101c-1.888,2.15-4.975,0.813-7.728,0.406c-4.426-0.653-9.158-1.116-14.233-1.22
c2.699,6.925,9.521,9.729,11.794,17.081c-5.952,6.044-11.094-10.3-15.861-11.795c-1.043,5.655,0.951,11.791,0.814,17.895
c-8.658,6.452-6.107-14.64-5.694-21.147c-1.595-0.089-2.438,2.053-3.253,3.253c-0.871,1.281-1.901,2.689-2.848,4.067
c-3.023,4.404-4.826,10.901-11.387,11.794c0.846-1.951,0.984-3.205-1.221-3.66c3.729-6.438,8.62-11.715,12.607-17.895
c-10.361-1.755-27.133,0.903-26.027-10.98c7.688,3.156,17.055,4.636,27.654,4.88c0.125-1.646-1.52-3.289-2.847-4.88
c-1.086-1.302-2.306-2.985-3.66-4.474c-4.188-4.6-12.635-8.11-5.287-15.048c0.327,0.216,0.66,0.425,1.22,0.407
C846.117,164.716,851.99,169.147,857.377,174.063z"/>
<path fill-rule="evenodd" clip-rule="evenodd" d="M434.675,68.838c1.053-2.635-1.016-6.772-0.407-10.574
c0.324-2.022,1.775-5.461,3.66-5.287c4.394,0.405,0.921,11.613,2.033,16.675c2.763,0.095,6.457-7.577,10.167-7.728
c1.701-0.068,3.242,0.78,3.66,2.033c1.742,5.227-9.649,8.997-10.574,12.607c2.157,0.387,4.854,0.211,7.728,0.407
c7.283,0.496,15.9-0.154,15.861,6.1c-1.888,2.151-4.975,0.813-7.727,0.407c-4.427-0.653-9.159-1.116-14.234-1.22
c2.699,6.926,9.521,9.729,11.794,17.08c-5.952,6.045-11.094-10.299-15.861-11.793c-1.043,5.654,0.951,11.79,0.813,17.894
c-8.668,6.438-6.074-14.618-5.694-21.147c-1.595-0.089-2.437,2.053-3.253,3.254c-0.871,1.28-1.901,2.688-2.847,4.066
c-2.96,4.312-4.767,10.248-10.574,11.794c-1.552-0.698,1.193-3.59-2.033-3.66c3.729-6.438,8.62-11.715,12.607-17.895
c-10.361-1.755-27.133,0.903-26.028-10.98c7.688,3.156,17.055,4.636,27.655,4.88c0.126-1.646-1.52-3.289-2.847-4.88
c-1.086-1.302-2.305-2.985-3.66-4.474c-4.189-4.6-12.634-8.11-5.287-15.048c0.327,0.216,0.66,0.425,1.22,0.407
C423.416,59.492,429.289,63.921,434.675,68.838z"/>
<path fill-rule="evenodd" clip-rule="evenodd" d="M100.092,111.532c9.738,1.243,21.231,0.729,29.688,3.254
c0.174,5.267-1.523,6.298-5.287,8.54c-4.596,2.738-10.958,6.801-15.454,8.947c1.41,5.203,3.655,10.847,6.1,16.268
c2.008,4.453,7.275,11.098,2.034,15.454c-5.463-2.498-9.336-7.046-13.421-10.98c-4.074-3.924-7.932-8.07-12.607-11.388
c-4.289,2.968-7.409,7.302-10.574,11.388c-3.104,4.007-5.432,9.081-10.574,10.98c-3.117-1.539-1.848-5.388-1.627-8.134
c0.446-5.538,1.024-10.78,0.813-17.487c-0.073-2.321,0.145-5.646-0.407-7.32c-1.229-3.734-7.11-6.537-10.574-9.354
c-4.04-3.286-7.678-6.249-8.541-11.387c5.588-3.462,15.796-0.255,23.588-0.813c4.154-6.421,5.024-16.124,9.354-22.368
c5.289,0.233,7.458,8.561,9.761,12.607C95.135,104.607,98.049,108.021,100.092,111.532z"/>
<path fill-rule="evenodd" clip-rule="evenodd" fill="white" class="colorable" d="M84.637,96.484c4.905,6.483,8.061,14.715,13.828,20.335
c7.646,0.487,15.254,1.014,22.775,1.627c-4.812,5.626-13.704,7.173-19.115,12.2c1.175,7.095,4.729,11.811,6.507,18.302
c-2.536-1.657-5.002-4.358-7.727-6.914c-2.436-2.284-5.273-5.595-7.727-6.507c-5.747-2.136-7.97,3.499-10.981,6.913
c-2.465,2.796-4.437,5.01-6.914,6.914c0.371-6-1.114-13.856,1.626-17.487c-2.982-7.999-11.212-10.749-15.861-17.081
c8.116-1.152,14.765,3.162,18.708-1.627C78.983,106.642,83.293,102.188,84.637,96.484z"/>
<path fill-rule="evenodd" clip-rule="evenodd" d="M548.597,368.981c4.035,25.876,10.437,49.386,17.71,72.018
c5.183-3.571,13.643-8.251,22.138-4.721c8.482,3.523,13.743,19.521,6.492,28.038c-3.816,4.481-10.067,6.34-18.005,6.197
c2.534,6.04,6.286,12.314,9.741,19.185c4.753,9.457,11.286,23.75,2.951,33.944c-5.671,6.935-17.871,10.417-26.858,5.018
c-8.012-4.814-13.217-14.154-16.234-23.613c-1.415-0.039-2.212,1.588-3.247,2.361c-10.624,7.933-27.882,11.505-46.928,11.807
c3.889,6.653,9.688,19.873,5.017,31.286c-2.089,5.101-6.944,9.621-13.871,10.33c-17.666,1.81-27.4-14.396-33.353-25.088
c-20.563-36.937-29.999-89.604-33.353-141.083c-5.306,0.429-10.825,1.878-16.528,2.656c-17.422,2.376-34.739,0.325-43.388-9.148
c-11.13-12.192-5.683-34.229,11.216-37.189c-1.161-1.36-2.958-1.575-4.428-2.361c-20.638-11.045-36.032-29.891-37.189-60.802
c-0.606-16.189,3.806-30.952,9.445-42.797c5.7-11.971,13.866-21.875,21.546-30.104c-49.511,0.394-106.478,7.403-142.558-10.332
c-17.19-8.449-31.272-22.928-29.515-48.699c1.52-22.288,14.87-38.27,31.286-46.634c18.153-9.251,44.204-10.383,67.295-6.789
c22.441,3.493,42.138,10.769,59.325,18.595c36.037,16.406,66.269,38.167,96.809,59.325c12.958-1.585,25.997-3.576,39.846-5.017
c1.899-0.198,4.354-0.069,5.607-0.59c1.36-0.567,3.011-4.064,4.723-6.199c4.747-5.916,10.988-11.578,15.938-16.528
c7.462-7.463,14.917-14.852,22.137-21.25c15.263-13.532,32.236-26.823,49.29-37.485c17.885-11.18,37.686-20.749,59.915-26.858
c22.802-6.266,53.177-7.978,76.149-0.591c11.383,3.661,19.76,8.661,26.563,16.824c6.723,8.066,11.473,18.442,10.33,33.058
c-2.026,25.922-18.035,40.176-38.664,48.109c-10.684,4.108-22.907,5.944-35.418,7.969c-36.831,5.965-75.171,12.358-113.043,17.119
c0.154,1.229,1.556,1.991,2.36,2.656c14.154,11.7,26.249,29.736,31.582,50.471c6.772,26.343-2.824,51.988-15.939,67
c0.216,0.805-0.586,0.594-0.59,1.18c14.106-2.294,25.689,6.141,24.202,20.66c-1.301,12.7-12.647,21.73-22.431,26.86
C575.067,363.85,562.056,367.84,548.597,368.981z"/>
<path fill-rule="evenodd" clip-rule="evenodd" fill="white" class="colorable" d="M498.422,174.478c-0.954-0.436,0.597-1.643,1.182-2.362
c4.461-5.487,10.027-10.494,15.052-15.938c5.619-6.088,12.016-11.73,18.3-17.414c18.749-16.96,38.376-32.246,61.391-45.454
c21.915-12.576,49.59-24.748,81.758-26.269c15.938-0.752,30.395,1.533,41.911,5.609c11.722,4.146,20.899,10.34,26.269,20.955
c5.918,11.7,4.627,27.632-0.295,38.665c-9.762,21.883-33.981,28.581-61.393,33.057c-27.143,4.433-53.546,8.906-81.756,12.692
c-11.315,1.518-24.53,3.119-36.008,5.313c-1.823,0.348-4.085,0.976-5.019,0.885c-1.528-0.146-4.052-1.944-6.198-2.951
c-5.938-2.784-12.489-5.026-20.66-5.903C521.866,174.172,511.668,174.743,498.422,174.478z"/>
<path fill-rule="evenodd" clip-rule="evenodd" fill="white" class="colorable" d="M435.259,182.152c-22.086,5.93-42.987,10.536-59.915,21.84
c-2.276,1.52-4.9,4.289-6.789,4.723c-3.149,0.724-7.938,0-12.101,0c-42.384,0-89.379,5.818-123.964-5.608
c-20.601-6.806-38.86-19.543-36.598-47.224c0.926-11.342,5.001-19.564,10.035-26.269c4.516-6.016,11.595-12.703,20.07-16.234
c8.183-3.41,19.541-5.821,30.991-6.493c21.019-1.235,39.601,2.47,55.783,7.674c40.343,12.973,72.257,32.924,104.188,54.308
c4.742,3.175,9.163,6.748,13.873,10.035C432.286,179.919,434.27,180.514,435.259,182.152z"/>
<path fill-rule="evenodd" clip-rule="evenodd" fill="white" class="colorable" d="M477.761,351.273c-5.149-11.675-7.521-26.128-8.854-41.616
c7.05-1.216,14.128-2.4,21.546-3.246c-0.196-2.879-2.021-6.621-2.951-9.741c-14.667,2.354-29.005,5.037-43.683,7.378
c0.214,3.132,0.822,5.869,0.886,9.15c7.04-0.831,13.486-2.256,20.661-2.952c1.36,11.355,2.635,22.673,5.608,32.764
c0.939,3.186,2.532,6.104,2.951,9.148c-32.156,5.146-68.644,4.502-93.563-5.019c-25.364-9.688-43.683-28.576-43.683-61.391
c0-20.219,7.214-37.002,15.938-50.175c8.875-13.403,20.719-23.97,34.533-31.287c7.193-3.81,15.496-6.605,23.907-9.149
c8.329-2.52,16.983-4.988,25.678-7.084c13.664-3.293,28.934-3.994,43.682-5.902c12.091-1.566,24.874-1.181,38.665-1.181
c7.882,0,14.999,0.543,20.957,2.065c12.227,3.125,21.609,9.262,29.514,16.529c7.753,7.125,14.098,16.284,19.186,26.858
c4.868,10.116,9.628,22.921,8.855,36.895c-0.837,15.108-6.875,27.869-13.873,38.074c-7.138,10.409-16.496,18.307-27.153,24.793
C534.521,339.603,508.573,346.091,477.761,351.273z"/>
<path fill-rule="evenodd" clip-rule="evenodd" d="M548.597,245.904c9.551-2.362,11.7,10.817,4.724,13.282
C544.157,262.423,539.563,248.139,548.597,245.904z"/>
<path fill-rule="evenodd" clip-rule="evenodd" d="M373.573,268.041c5.029-1.019,9.128,2.276,8.56,7.674
c-0.875,8.304-14.475,8.186-14.167-1.181C368.057,271.721,369.554,268.855,373.573,268.041z"/>
<path fill-rule="evenodd" clip-rule="evenodd" fill="white" class="colorable" d="M541.81,363.08c3.801,34.272,13.188,62.961,22.431,91.791
c2.305-2.235,3.112-5.655,5.608-8.263c3.883-4.06,12.802-7.816,18.299-3.247c3.097,2.573,5.617,9.638,3.247,15.052
c-3.217,7.349-16.575,6.639-24.498,3.542c2.901,11.903,10.379,21.86,15.644,33.058c1.757,3.734,3.662,7.829,4.428,11.805
c0.579,3.012,0.729,6.947-0.295,9.739c-1.941,5.295-10.265,10.582-18.004,7.971c-2.376-0.802-5.034-2.715-6.789-4.427
c-7.386-7.201-11.543-20.101-11.807-33.353c-2.835,3.018-3.622,8.07-6.198,11.51c-5.085,6.793-17.348,11.141-28.924,13.283
c-11.717,2.167-24.597,1.629-35.418-0.886c6.824,7.005,19.381,17.256,17.119,33.647c-0.535,3.869-2.849,7.861-6.493,9.445
c-3.248,1.411-9.298,0.847-12.692-0.591c-5.241-2.22-10.132-8.016-13.872-13.578c-10.773-16.021-18.059-37.68-23.612-57.85
c-7.933-28.808-10.752-61.955-13.872-95.038c-20.51,4.906-55.307,11.957-63.753-7.674c-4.783-11.116,2.986-19.479,9.741-21.841
c3.35-1.172,9.851-1.86,14.167-1.182c4.274,0.674,8.34,2.146,12.691,2.952c13.097,2.429,28.293,3.162,43.978,2.362
c36.875-1.881,75.446-9.955,102.713-22.138c6.846-3.06,13.563-7.146,19.775-11.51c5.905-4.151,11.796-10.521,20.66-11.513
c9.632-1.076,17.376,3.433,16.824,12.987c-0.412,7.107-5.148,13.056-9.445,16.824C581.794,356.191,561.138,362.359,541.81,363.08z"
/>
<path fill-rule="evenodd" clip-rule="evenodd" d="M715.112,246.988c9.738,1.243,21.232,0.729,29.688,3.253
c0.174,5.268-1.523,6.299-5.286,8.541c-4.597,2.737-10.959,6.801-15.455,8.947c1.41,5.202,3.656,10.846,6.101,16.268
c2.009,4.452,7.275,11.097,2.033,15.454c-5.462-2.499-9.336-7.046-13.421-10.98c-4.074-3.925-7.932-8.071-12.607-11.388
c-4.288,2.967-7.408,7.301-10.574,11.388c-3.104,4.007-5.43,9.081-10.573,10.98c-3.123-1.539-1.839-5.405-1.627-8.134
c0.435-5.586,1.024-10.751,0.813-17.487c-0.073-2.334,0.156-5.613-0.406-7.321c-1.231-3.738-7.104-6.53-10.574-9.354
c-4.027-3.275-7.672-6.239-8.541-11.388c5.588-3.462,15.797-0.254,23.588-0.813c4.154-6.421,5.024-16.124,9.354-22.368
c5.288,0.233,7.458,8.56,9.761,12.607C710.155,240.063,713.07,243.477,715.112,246.988z"/>
<path fill-rule="evenodd" clip-rule="evenodd" fill="white" class="colorable" d="M699.658,231.94c4.905,6.483,8.06,14.714,13.827,20.335
c7.646,0.487,15.254,1.014,22.775,1.626c-4.813,5.627-13.703,7.174-19.115,12.201c1.176,7.095,4.729,11.811,6.508,18.301
c-2.536-1.656-5.002-4.357-7.728-6.913c-2.436-2.285-5.272-5.596-7.728-6.508c-5.746-2.136-7.97,3.5-10.98,6.914
c-2.465,2.795-4.436,5.01-6.913,6.914c0.37-6.001-1.114-13.857,1.626-17.488c-2.982-7.998-11.211-10.749-15.86-17.081
c8.116-1.152,14.765,3.162,18.708-1.626C694.005,242.098,698.313,237.645,699.658,231.94z"/>
<path fill-rule="evenodd" clip-rule="evenodd" d="M150.224,309.088c0.669-3.235-1.744-8.991,2.44-10.168
c2.618,1.313,0.57,7.293,1.22,10.574c2.499-0.082,4.067-4.605,7.728-4.88c4.523,4.071-3.866,6.52-5.287,9.761
c5.011,1.632,14.816-1.531,15.454,4.474c-3.557,1.429-9.82-0.859-14.641-0.813c1.555,4.952,6.664,6.35,7.727,11.794
c-0.362,0.181-0.728,0.356-0.813,0.813c-5.037-0.725-5.742-6.717-9.761-8.947c-0.875,3.166,1.817,9.787,0,12.607
c-0.813,0-1.626,0-2.44,0c-1.98-4.135-0.731-9.594-0.813-15.048c-4.416,3.718-4.975,11.293-11.387,13.015
c0.855-2.082-0.407-1.635-0.813-3.254c3.014-3.222,5.202-7.27,8.134-10.574c-5.903-2.129-18.404,0.286-17.081-7.727
c5.136,2.049,11.414,2.956,18.301,3.253c-1.178-6.41-13.18-8.837-8.134-16.268c0.657-0.114,0.7,0.385,1.22,0.407
C142.869,303.157,146.679,305.99,150.224,309.088z"/>
<path fill-rule="evenodd" clip-rule="evenodd" d="M878.393,505.237c0.67-3.236-1.744-8.992,2.439-10.168
c2.619,1.313,0.57,7.293,1.221,10.574c2.498-0.082,4.066-4.605,7.727-4.88c4.523,4.071-3.865,6.52-5.287,9.761
c5.012,1.631,14.816-1.532,15.455,4.473c-3.557,1.43-9.82-0.858-14.641-0.813c1.555,4.951,6.664,6.35,7.727,11.793
c-0.361,0.181-0.728,0.357-0.813,0.814c-5.036-0.726-5.742-6.717-9.761-8.947c-0.875,3.166,1.817,9.787,0,12.607
c-0.813,0-1.627,0-2.439,0c-1.98-4.135-0.73-9.594-0.814-15.048c-4.416,3.718-4.975,11.293-11.387,13.014
c0.855-2.081-0.407-1.634-0.813-3.253c3.015-3.223,5.202-7.271,8.134-10.574c-5.903-2.13-18.404,0.285-17.08-7.728
c5.135,2.05,11.412,2.956,18.301,3.254c-1.178-6.41-13.181-8.837-8.135-16.268c0.657-0.114,0.7,0.385,1.221,0.407
C871.037,499.307,874.848,502.139,878.393,505.237z"/>
<path fill-rule="evenodd" clip-rule="evenodd" d="M131.604,459.68c9.736,1.243,21.23,0.729,29.688,3.254
c0.174,5.267-1.523,6.298-5.287,8.54c-4.596,2.738-10.957,6.801-15.454,8.947c1.411,5.202,3.655,10.847,6.101,16.268
c2.008,4.453,7.275,11.098,2.033,15.454c-5.463-2.499-9.336-7.046-13.42-10.98c-4.074-3.925-7.933-8.07-12.607-11.388
c-4.289,2.968-7.409,7.302-10.574,11.388c-3.104,4.007-5.432,9.081-10.574,10.98c-3.117-1.539-1.848-5.388-1.627-8.134
c0.446-5.538,1.023-10.78,0.813-17.487c-0.073-2.322,0.145-5.646-0.407-7.32c-1.229-3.734-7.109-6.537-10.573-9.354
c-4.04-3.286-7.679-6.249-8.54-11.388c5.588-3.461,15.795-0.254,23.588-0.813c4.152-6.421,5.023-16.124,9.354-22.368
c5.289,0.233,7.457,8.561,9.76,12.607C126.646,452.754,129.562,456.169,131.604,459.68z"/>
<path fill-rule="evenodd" clip-rule="evenodd" fill="white" class="colorable" d="M116.149,444.632c4.896,6.492,8.072,14.702,13.828,20.335
c7.623,0.51,15.306,0.961,22.773,1.627c-4.811,5.626-13.703,7.173-19.113,12.2c1.225,7.045,4.707,11.831,6.506,18.301
c-2.535-1.656-5.001-4.357-7.727-6.913c-2.436-2.285-5.272-5.596-7.727-6.508c-5.746-2.135-7.971,3.5-10.98,6.914
c-2.465,2.795-4.438,5.01-6.914,6.914c0.371-6-1.113-13.857,1.627-17.488c-3.008-7.973-11.171-10.79-15.861-17.08
c8.115-1.153,14.764,3.162,18.707-1.627C110.495,454.789,114.806,450.336,116.149,444.632z"/>
<path fill-rule="evenodd" clip-rule="evenodd" d="M283.353,499.479c1.053-2.635-1.016-6.772-0.407-10.573
c0.324-2.022,1.775-5.461,3.661-5.287c4.394,0.404,0.92,11.612,2.033,16.674c2.763,0.095,6.456-7.577,10.166-7.727
c1.701-0.069,3.243,0.779,3.661,2.033c1.741,5.226-9.649,8.996-10.574,12.607c2.165,0.293,4.856,0.197,7.728,0.406
c7.301,0.534,15.889-0.183,15.86,6.101c-1.888,2.151-4.975,0.813-7.728,0.407c-4.426-0.654-9.158-1.116-14.233-1.221
c2.699,6.926,9.521,9.729,11.794,17.081c-5.952,6.044-11.094-10.3-15.861-11.794c-1.043,5.654,0.951,11.791,0.814,17.895
c-8.658,6.451-6.107-14.641-5.694-21.148c-1.595-0.088-2.438,2.054-3.253,3.254c-0.871,1.28-1.902,2.689-2.848,4.066
c-2.96,4.313-4.768,10.248-10.574,11.795c-1.552-0.699,1.193-3.59-2.033-3.66c3.729-6.439,8.62-11.715,12.607-17.895
c-10.373-1.744-27.102,0.871-26.027-10.98c7.688,3.156,17.055,4.635,27.654,4.88c0.125-1.647-1.52-3.29-2.847-4.88
c-1.086-1.302-2.306-2.985-3.66-4.474c-4.188-4.601-12.635-8.11-5.287-15.048c0.327,0.215,0.66,0.424,1.22,0.406
C272.093,490.133,277.966,494.563,283.353,499.479z"/>
<path fill-rule="evenodd" clip-rule="evenodd" d="M683.237,508.906c0.669-3.235-1.744-8.991,2.44-10.168
c2.618,1.313,0.57,7.293,1.22,10.574c2.499-0.082,4.067-4.605,7.728-4.88c4.523,4.071-3.866,6.52-5.287,9.761
c5.011,1.632,14.816-1.531,15.454,4.474c-3.557,1.429-9.819-0.859-14.641-0.813c1.555,4.952,6.664,6.35,7.728,11.794
c-0.363,0.181-0.729,0.356-0.814,0.813c-5.036-0.725-5.742-6.717-9.76-8.947c-0.875,3.166,1.816,9.787,0,12.607
c-0.813,0-1.627,0-2.44,0c-1.98-4.135-0.731-9.594-0.813-15.048c-4.416,3.718-4.975,11.293-11.387,13.015
c0.854-2.082-0.408-1.635-0.814-3.254c3.015-3.222,5.203-7.27,8.135-10.574c-5.904-2.129-18.404,0.286-17.082-7.727
c5.137,2.049,11.414,2.956,18.302,3.253c-1.179-6.41-13.181-8.837-8.134-16.268c0.656-0.114,0.7,0.385,1.22,0.407
C675.883,502.976,679.692,505.809,683.237,508.906z"/>
<path fill-rule="evenodd" clip-rule="evenodd" d="M836.781,374.033c9.736,1.243,21.23,0.729,29.688,3.254
c0.174,5.267-1.523,6.298-5.287,8.54c-4.596,2.738-10.957,6.801-15.454,8.947c1.411,5.202,3.655,10.847,6.101,16.268
c2.008,4.453,7.275,11.098,2.033,15.454c-5.463-2.499-9.336-7.046-13.42-10.98c-4.074-3.925-7.933-8.07-12.607-11.388
c-4.289,2.968-7.409,7.302-10.574,11.388c-3.104,4.007-5.432,9.081-10.574,10.98c-3.117-1.539-1.848-5.388-1.627-8.134
c0.446-5.538,1.023-10.78,0.813-17.487c-0.073-2.322,0.145-5.646-0.407-7.32c-1.229-3.734-7.109-6.537-10.573-9.354
c-4.04-3.286-7.679-6.249-8.54-11.388c5.588-3.461,15.795-0.254,23.588-0.813c4.152-6.421,5.023-16.124,9.354-22.368
c5.289,0.233,7.457,8.561,9.76,12.607C831.823,367.107,834.738,370.522,836.781,374.033z"/>
<path fill-rule="evenodd" clip-rule="evenodd" fill="white" class="colorable" d="M821.326,358.985c4.896,6.492,8.072,14.702,13.828,20.335
c7.623,0.51,15.306,0.961,22.773,1.627c-4.811,5.626-13.703,7.173-19.113,12.2c1.225,7.045,4.707,11.831,6.506,18.301
c-2.535-1.656-5.001-4.357-7.727-6.913c-2.436-2.285-5.272-5.596-7.727-6.508c-5.746-2.135-7.971,3.5-10.98,6.914
c-2.465,2.795-4.438,5.01-6.914,6.914c0.371-6-1.113-13.857,1.627-17.488c-3.008-7.973-11.171-10.79-15.861-17.08
c8.115-1.153,14.764,3.162,18.707-1.627C815.672,369.143,819.982,364.689,821.326,358.985z"/>
<path fill-rule="evenodd" clip-rule="evenodd" d="M857.367,44.445c0.669-3.235-1.744-8.991,2.44-10.168
c2.618,1.313,0.57,7.293,1.22,10.574c2.499-0.082,4.067-4.605,7.728-4.88c4.523,4.071-3.866,6.52-5.287,9.761
c5.011,1.632,14.816-1.531,15.454,4.474c-3.557,1.429-9.819-0.859-14.641-0.813c1.555,4.952,6.664,6.35,7.728,11.794
c-0.363,0.181-0.729,0.356-0.814,0.813c-5.036-0.725-5.742-6.717-9.76-8.947c-0.875,3.166,1.816,9.787,0,12.607
c-0.813,0-1.627,0-2.44,0c-1.98-4.135-0.731-9.594-0.813-15.048c-4.416,3.718-4.975,11.293-11.387,13.015
c0.854-2.082-0.408-1.635-0.814-3.254c3.015-3.222,5.203-7.27,8.135-10.574c-5.904-2.129-18.404,0.286-17.082-7.727
c5.137,2.049,11.414,2.956,18.302,3.253c-1.179-6.41-13.181-8.837-8.134-16.268c0.656-0.114,0.7,0.385,1.22,0.407
C850.013,38.515,853.822,41.348,857.367,44.445z"/>
<path fill="white" class="colorable"  d="M0,0v600h960V0H0z M837.032,46.072c5.137,2.049,11.414,2.956,18.302,3.253
c-1.179-6.41-13.181-8.837-8.134-16.268c0.656-0.114,0.7,0.385,1.22,0.407c1.593,5.05,5.402,7.883,8.947,10.981
c0.669-3.235-1.744-8.991,2.44-10.168c2.618,1.313,0.57,7.294,1.22,10.575c2.499-0.082,4.067-4.604,7.728-4.879
c4.523,4.071-3.866,6.522-5.287,9.764c5.011,1.632,14.816-1.526,15.454,4.479c-3.557,1.429-9.819-0.849-14.641-0.803
c1.555,4.952,6.664,6.371,7.728,11.815c-0.363,0.181-0.729,0.399-0.814,0.856c-5.036-0.725-5.742-6.632-9.76-8.862
c-0.875,3.166,1.816,9.777,0,12.777c-0.813,0-1.627,0-2.44,0c-1.98-4-0.731-9.764-0.813-15.218
c-4.416,3.718-4.975,11.123-11.387,12.845c0.854-2.082-0.408-1.635-0.814-3.254c3.015-3.222,5.203-7.27,8.135-10.574
C848.21,51.67,835.71,54.085,837.032,46.072z M826.469,176.096c7.688,3.156,17.055,4.636,27.654,4.88
c0.125-1.646-1.52-3.289-2.847-4.88c-1.086-1.302-2.306-2.985-3.66-4.474c-4.188-4.6-12.635-8.11-5.287-15.048
c0.327,0.216,0.66,0.425,1.22,0.407c2.568,7.734,8.441,12.165,13.828,17.081c1.053-2.635-1.016-6.772-0.407-10.574
c0.324-2.022,1.775-5.461,3.66-5.287c4.395,0.405,0.921,11.613,2.034,16.675c2.773,0.185,6.321-7.602,10.166-7.728
c2.328-0.076,3.541,1.154,3.661,3.254c0.259,4.565-9.208,7.596-10.574,11.387c2.165,0.293,4.856,0.197,7.728,0.407
c7.301,0.534,15.889-0.184,15.86,6.101c-1.888,2.15-4.975,0.813-7.728,0.406c-4.426-0.653-9.158-1.116-14.233-1.22
c2.699,6.925,9.521,9.729,11.794,17.081c-5.952,6.044-11.094-10.3-15.861-11.795c-1.043,5.655,0.951,11.791,0.814,17.895
c-8.658,6.452-6.107-14.64-5.694-21.147c-1.595-0.089-2.438,2.053-3.253,3.253c-0.871,1.281-1.901,2.689-2.848,4.067
c-3.023,4.404-4.826,10.901-11.387,11.794c0.846-1.951,0.984-3.205-1.221-3.66c3.729-6.438,8.62-11.715,12.607-17.895
C842.135,185.322,825.363,187.98,826.469,176.096z M403.767,70.872c7.688,3.156,17.055,4.636,27.655,4.88
c0.126-1.646-1.52-3.289-2.847-4.88c-1.086-1.302-2.305-2.985-3.66-4.474c-4.189-4.6-12.634-8.11-5.287-15.048
c0.327,0.216,0.66,0.425,1.22,0.407c2.568,7.734,8.441,12.164,13.828,17.081c1.053-2.635-1.016-6.772-0.407-10.574
c0.324-2.022,1.775-5.461,3.66-5.287c4.394,0.405,0.921,11.613,2.033,16.675c2.763,0.095,6.457-7.577,10.167-7.728
c1.701-0.068,3.242,0.78,3.66,2.033c1.742,5.227-9.649,8.997-10.574,12.607c2.157,0.387,4.854,0.211,7.728,0.407
c7.283,0.496,15.9-0.154,15.861,6.1c-1.888,2.151-4.975,0.813-7.727,0.407c-4.427-0.653-9.159-1.116-14.234-1.22
c2.699,6.926,9.521,9.729,11.794,17.08c-5.952,6.045-11.094-10.299-15.861-11.793c-1.043,5.654,0.951,11.79,0.813,17.894
c-8.668,6.438-6.074-14.618-5.694-21.147c-1.595-0.089-2.437,2.053-3.253,3.254c-0.871,1.28-1.901,2.688-2.847,4.066
c-2.96,4.312-4.767,10.248-10.574,11.794c-1.552-0.698,1.193-3.59-2.033-3.66c3.729-6.438,8.62-11.715,12.607-17.895
C419.434,80.097,402.662,82.755,403.767,70.872z M69.997,163.995c-3.117-1.539-1.848-5.388-1.627-8.134
c0.446-5.538,1.024-10.78,0.813-17.487c-0.073-2.321,0.145-5.646-0.407-7.32c-1.229-3.734-7.11-6.537-10.574-9.354
c-4.04-3.286-7.678-6.249-8.541-11.387c5.588-3.462,15.796-0.255,23.588-0.813c4.154-6.421,5.024-16.124,9.354-22.368
c5.289,0.233,7.458,8.561,9.761,12.607c2.77,4.869,5.685,8.283,7.727,11.794c9.738,1.243,21.231,0.729,29.688,3.254
c0.174,5.267-1.523,6.298-5.287,8.54c-4.596,2.738-10.958,6.801-15.454,8.947c1.41,5.203,3.655,10.847,6.1,16.268
c2.008,4.453,7.275,11.098,2.034,15.454c-5.463-2.498-9.336-7.046-13.421-10.98c-4.074-3.924-7.932-8.07-12.607-11.388
c-4.289,2.968-7.409,7.302-10.574,11.388C77.466,157.021,75.139,162.096,69.997,163.995z M156.005,471.474
c-4.596,2.738-10.957,6.801-15.454,8.947c1.411,5.202,3.655,10.847,6.101,16.268c2.008,4.453,7.275,11.098,2.033,15.454
c-5.463-2.499-9.336-7.046-13.42-10.98c-4.074-3.925-7.933-8.07-12.607-11.388c-4.289,2.968-7.409,7.302-10.574,11.388
c-3.104,4.007-5.432,9.081-10.574,10.98c-3.117-1.539-1.848-5.388-1.627-8.134c0.446-5.538,1.023-10.78,0.813-17.487
c-0.073-2.322,0.145-5.646-0.407-7.32c-1.229-3.734-7.109-6.537-10.573-9.354c-4.04-3.286-7.679-6.249-8.54-11.388
c5.588-3.461,15.795-0.254,23.588-0.813c4.152-6.421,5.023-16.124,9.354-22.368c5.289,0.233,7.457,8.561,9.76,12.607
c2.771,4.868,5.686,8.283,7.729,11.794c9.736,1.243,21.23,0.729,29.688,3.254C161.466,468.2,159.769,469.231,156.005,471.474z
M157.138,318.017c1.555,4.952,6.664,6.33,7.727,11.774c-0.362,0.181-0.728,0.318-0.813,0.775c-5.037-0.725-5.742-6.792-9.761-9.022
c-0.875,3.166,1.817,9.456,0,12.456c-0.813,0-1.626,0-2.44,0c-1.98-4-0.731-9.442-0.813-14.896
c-4.416,3.718-4.975,11.444-11.387,13.166c0.855-2.082-0.407-1.635-0.813-3.254c3.014-3.222,5.202-7.27,8.134-10.574
c-5.903-2.129-18.404,0.286-17.081-7.727c5.136,2.049,11.414,2.956,18.301,3.253c-1.178-6.41-13.18-8.837-8.134-16.268
c0.657-0.114,0.7,0.385,1.22,0.407c1.593,5.05,5.402,7.883,8.947,10.98c0.669-3.235-1.744-8.991,2.44-10.168
c2.618,1.313,0.57,7.293,1.22,10.574c2.499-0.082,4.067-4.605,7.728-4.88c4.523,4.071-3.866,6.52-5.287,9.761
c5.011,1.632,14.816-1.541,15.454,4.464C168.222,320.268,161.958,317.971,157.138,318.017z M307.753,514.121
c-4.426-0.654-9.158-1.116-14.233-1.221c2.699,6.926,9.521,9.729,11.794,17.081c-5.952,6.044-11.094-10.3-15.861-11.794
c-1.043,5.654,0.951,11.791,0.814,17.895c-8.658,6.451-6.107-14.641-5.694-21.148c-1.595-0.088-2.438,2.054-3.253,3.254
c-0.871,1.28-1.902,2.689-2.848,4.066c-2.96,4.313-4.768,10.248-10.574,11.795c-1.552-0.699,1.193-3.59-2.033-3.66
c3.729-6.439,8.62-11.715,12.607-17.895c-10.373-1.744-27.102,0.871-26.027-10.98c7.688,3.156,17.055,4.635,27.654,4.88
c0.125-1.647-1.52-3.29-2.847-4.88c-1.086-1.302-2.306-2.985-3.66-4.474c-4.188-4.601-12.635-8.11-5.287-15.048
c0.327,0.215,0.66,0.424,1.22,0.406c2.568,7.734,8.441,12.165,13.828,17.081c1.053-2.635-1.016-6.772-0.407-10.573
c0.324-2.022,1.775-5.461,3.661-5.287c4.394,0.404,0.92,11.612,2.033,16.674c2.763,0.095,6.456-7.577,10.166-7.727
c1.701-0.069,3.243,0.779,3.661,2.033c1.741,5.226-9.649,8.996-10.574,12.607c2.165,0.293,4.856,0.197,7.728,0.406
c7.301,0.534,15.889-0.183,15.86,6.101C313.593,515.865,310.506,514.527,307.753,514.121z M690.151,517.846
c1.555,4.952,6.664,6.342,7.728,11.787c-0.363,0.18-0.729,0.341-0.814,0.798c-5.036-0.725-5.742-6.747-9.76-8.978
c-0.875,3.166,1.816,9.547,0,12.547c-0.813,0-1.627,0-2.44,0c-1.98-4-0.731-9.533-0.813-14.987
c-4.416,3.718-4.975,11.354-11.387,13.075c0.854-2.082-0.408-1.635-0.814-3.254c3.015-3.222,5.203-7.27,8.135-10.574
c-5.904-2.129-18.404,0.286-17.082-7.727c5.137,2.049,11.414,2.956,18.302,3.253c-1.179-6.41-13.181-8.837-8.134-16.268
c0.656-0.114,0.7,0.385,1.22,0.407c1.593,5.05,5.402,7.883,8.947,10.98c0.669-3.235-1.744-8.991,2.44-10.168
c2.618,1.313,0.57,7.293,1.22,10.574c2.499-0.082,4.067-4.605,7.728-4.88c4.523,4.071-3.866,6.52-5.287,9.761
c5.011,1.632,14.816-1.535,15.454,4.47C701.235,520.092,694.973,517.8,690.151,517.846z M739.515,258.782
c-4.597,2.737-10.959,6.801-15.455,8.947c1.41,5.202,3.656,10.846,6.101,16.268c2.009,4.452,7.275,11.097,2.033,15.454
c-5.462-2.499-9.336-7.046-13.421-10.98c-4.074-3.925-7.932-8.071-12.607-11.388c-4.288,2.967-7.408,7.301-10.574,11.388
c-3.104,4.007-5.43,9.081-10.573,10.98c-3.123-1.539-1.839-5.405-1.627-8.134c0.435-5.586,1.024-10.751,0.813-17.487
c-0.073-2.334,0.156-5.613-0.406-7.321c-1.231-3.738-7.104-6.53-10.574-9.354c-4.027-3.275-7.672-6.239-8.541-11.388
c5.588-3.462,15.797-0.254,23.588-0.813c4.154-6.421,5.024-16.124,9.354-22.368c5.288,0.233,7.458,8.56,9.761,12.607
c2.77,4.868,5.685,8.282,7.727,11.794c9.738,1.243,21.232,0.729,29.688,3.253C744.975,255.509,743.277,256.54,739.515,258.782z
M754.613,115.743c-2.026,25.922-18.035,40.176-38.664,48.109c-10.684,4.108-22.907,5.944-35.418,7.969
c-36.831,5.965-75.171,12.358-113.043,17.119c0.154,1.229,1.556,1.991,2.36,2.656c14.154,11.7,26.249,29.736,31.582,50.471
c6.772,26.343-2.824,51.988-15.939,67c0.216,0.805-0.586,0.594-0.59,1.18c14.106-2.294,25.689,6.141,24.202,20.66
c-1.301,12.7-12.647,21.73-22.431,26.86c-11.605,6.082-24.617,10.072-38.076,11.214c4.035,25.876,10.437,49.386,17.71,72.018
c5.183-3.571,13.643-8.251,22.138-4.721c8.482,3.523,13.743,19.521,6.492,28.038c-3.816,4.481-10.067,6.34-18.005,6.197
c2.534,6.04,6.286,12.314,9.741,19.185c4.753,9.457,11.286,23.75,2.951,33.944c-5.671,6.935-17.871,10.417-26.858,5.018
c-8.012-4.814-13.217-14.154-16.234-23.613c-1.415-0.039-2.212,1.588-3.247,2.361c-10.624,7.933-27.882,11.505-46.928,11.807
c3.889,6.653,9.688,19.873,5.017,31.286c-2.089,5.101-6.944,9.621-13.871,10.33c-17.666,1.81-27.4-14.396-33.353-25.088
c-20.563-36.937-29.999-89.604-33.353-141.083c-5.306,0.429-10.825,1.878-16.528,2.656c-17.422,2.376-34.739,0.325-43.388-9.148
c-11.13-12.192-5.683-34.229,11.216-37.189c-1.161-1.36-2.958-1.575-4.428-2.361c-20.638-11.045-36.032-29.891-37.189-60.802
c-0.606-16.189,3.806-30.952,9.445-42.797c5.7-11.971,13.866-21.875,21.546-30.104c-49.511,0.394-106.478,7.403-142.558-10.332
c-17.19-8.449-31.272-22.928-29.515-48.699c1.52-22.288,14.87-38.27,31.286-46.634c18.153-9.251,44.204-10.383,67.295-6.789
c22.441,3.493,42.138,10.769,59.325,18.595c36.037,16.406,66.269,38.167,96.809,59.325c12.958-1.585,25.997-3.576,39.846-5.017
c1.899-0.198,4.354-0.069,5.607-0.59c1.36-0.567,3.011-4.064,4.723-6.199c4.747-5.916,10.988-11.578,15.938-16.528
c7.462-7.463,14.917-14.852,22.137-21.25c15.263-13.532,32.236-26.823,49.29-37.485c17.885-11.18,37.686-20.749,59.915-26.858
c22.802-6.266,53.177-7.978,76.149-0.591c11.383,3.661,19.76,8.661,26.563,16.824C751.006,90.752,755.756,101.128,754.613,115.743z
M853.861,426.496c-5.463-2.499-9.336-7.046-13.42-10.98c-4.074-3.925-7.933-8.07-12.607-11.388
c-4.289,2.968-7.409,7.302-10.574,11.388c-3.104,4.007-5.432,9.081-10.574,10.98c-3.117-1.539-1.848-5.388-1.627-8.134
c0.446-5.538,1.023-10.78,0.813-17.487c-0.073-2.322,0.145-5.646-0.407-7.32c-1.229-3.734-7.109-6.537-10.573-9.354
c-4.04-3.286-7.679-6.249-8.54-11.388c5.588-3.461,15.795-0.254,23.588-0.813c4.152-6.421,5.023-16.124,9.354-22.368
c5.289,0.233,7.457,8.561,9.76,12.607c2.771,4.868,5.686,8.283,7.729,11.794c9.736,1.243,21.23,0.729,29.688,3.254
c0.174,5.267-1.523,6.298-5.287,8.54c-4.596,2.738-10.957,6.801-15.454,8.947c1.411,5.202,3.655,10.847,6.101,16.268
C853.836,415.495,859.104,422.14,853.861,426.496z M885.307,514.156c1.555,4.951,6.664,6.321,7.727,11.765
c-0.361,0.181-0.728,0.301-0.813,0.758c-5.036-0.726-5.742-6.829-9.761-9.06c-0.875,3.166,1.817,10.381,0,12.381
c-0.813,0-1.627,0-2.439,0c-1.98-4-0.73-9.367-0.814-14.822c-4.416,3.719-4.975,11.52-11.387,13.24
c0.855-2.081-0.407-1.634-0.813-3.253c3.015-3.223,5.202-7.271,8.134-10.574c-5.903-2.13-18.404,0.285-17.08-7.728
c5.135,2.05,11.412,2.956,18.301,3.254c-1.178-6.41-13.181-8.837-8.135-16.268c0.657-0.114,0.7,0.385,1.221,0.407
c1.592,5.05,5.402,7.882,8.947,10.98c0.67-3.236-1.744-8.992,2.439-10.168c2.619,1.313,0.57,7.293,1.221,10.574
c2.498-0.082,4.066-4.605,7.727-4.88c4.523,4.071-3.865,6.52-5.287,9.761c5.012,1.631,14.816-1.532,15.455,4.473
C896.391,516.427,890.127,514.11,885.307,514.156z"/>
</svg>
